<svg xmlns="http://www.w3.org/2000/svg" viewBox="0 0 512 512" role="img" aria-label="PilateSafe app icon">
  <defs>
    <linearGradient id="bg" x1="0%" y1="0%" x2="100%" y2="100%">
      <stop offset="0%" stop-color="#90cdf4" />
      <stop offset="100%" stop-color="#7f7fff" />
    </linearGradient>
    <linearGradient id="shield" x1="0%" y1="0%" x2="100%" y2="100%">
      <stop offset="0%" stop-color="#ffffff" stop-opacity="0.95" />
      <stop offset="100%" stop-color="#d9e8ff" stop-opacity="0.95" />
    </linearGradient>
    <filter id="softShadow" x="-20%" y="-20%" width="140%" height="140%">
      <feDropShadow dx="0" dy="18" stdDeviation="24" flood-color="#1f2940" flood-opacity="0.18" />
    </filter>
  </defs>

  <rect width="512" height="512" rx="96" fill="url(#bg)" />
  <g transform="translate(256 160)">
    <path d="M0 0c-56 24-96 68-96 118 0 87 96 152 96 152s96-65 96-152c0-50-40-94-96-118z" fill="url(#shield)" stroke="#ffffff" stroke-width="16" filter="url(#softShadow)" />
    <path d="M-16 12c0 0-18 26-18 42 0 14 10 24 18 28h32c8-4 18-14 18-28 0-16-18-42-18-42z" fill="#7f7fff" />
    <circle cx="0" cy="-28" r="26" fill="#7f7fff" />
    <path d="M-46 18c22-20 58-20 92 0" fill="none" stroke="#7f7fff" stroke-width="18" stroke-linecap="round" />
    <path d="M-18 58c0 12 10 20 22 20s22-8 22-20" fill="none" stroke="#7f7fff" stroke-width="18" stroke-linecap="round" stroke-linejoin="round" />
  </g>
</svg>
